PathFileType	4	(X/Y/Z)	Patient4_TMGait_0pt3_01_right_05.trc.trc
DataRate	CameraRate	NumFrames	NumMarkers	Units	OrigDataRate	OrigDataStartFrame	OrigNumFrames
52.044609665428	52.044609665428	4	33	mm	52.044609665428	89	       141
Frame#	Time	Sacral			L.Shoulder			Chest			R.Shoulder			Neck			R.ASIS			L.ASIS			R.Thigh.Superior			R.Thigh.Lateral			R.Thigh.Inferior			R.Patella			L.Thigh.Superior			L.Thigh.Lateral			L.Thigh.Inferior			L.Patella			L.Shank.Superior			L.Shank.Lateral			L.Shank.Inferior			R.Shank.Superior			R.Shank.Lateral			R.Shank.Inferior			R.Heel			R.Midfoot.Superior			R.Midfoot.Lateral			R.Toe			L.Heel			L.Midfoot.Lateral			L.Midfoot.Superior			L.Toe			L.Elbow			L.Wrist			R.Elbow			R.Wrist			
		X1	Y1	Z1	X2	Y2	Z2	X3	Y3	Z3	X4	Y4	Z4	X5	Y5	Z5	X6	Y6	Z6	X7	Y7	Z7	X8	Y8	Z8	X9	Y9	Z9	X10	Y10	Z10	X11	Y11	Z11	X12	Y12	Z12	X13	Y13	Z13	X14	Y14	Z14	X15	Y15	Z15	X16	Y16	Z16	X17	Y17	Z17	X18	Y18	Z18	X19	Y19	Z19	X20	Y20	Z20	X21	Y21	Z21	X22	Y22	Z22	X23	Y23	Z23	X24	Y24	Z24	X25	Y25	Z25	X26	Y26	Z26	X27	Y27	Z27	X28	Y28	Z28	X29	Y29	Z29	X30	Y30	Z30	X31	Y31	Z31	X32	Y32	Z32	X33	Y33	Z33	

89	9.470857142857	810.776284482924	1002.342467507283	522.523495006981	947.369745924134	1427.931910167357	314.049536085279	1076.554598692041	1365.467918935538	458.141844774364	1018.765896587330	1443.661323113232	639.480198461286	955.763024281440	1492.768031057512	469.873753957620	1051.035336160484	935.370866785020	613.817387901157	1008.839088472168	961.392845349394	342.371864991619	1049.997985843185	723.023952032033	593.718238894855	951.976926771653	626.801076961163	662.199502156356	1014.485383544517	558.906376079263	584.344187450842	993.569941008114	462.772240645627	599.197063283388	1077.408838842071	759.151387514047	379.172922026576	1003.049072979216	632.676815814210	320.330706947604	1095.586839758443	563.587745167914	383.456289216349	1102.979211566330	491.223760101565	390.575430637028	1071.855653033616	417.334510993315	383.546587958009	979.567664074943	306.098131301038	332.206186432832	1026.641034467607	192.064731677642	399.896204512456	930.715730068267	390.228624390298	609.621594509727	824.683103537414	322.824432783189	673.275174777118	832.909821695667	214.622232253630	619.419159444309	652.145042877280	90.402230380300	590.728392321689	827.611517358074	105.089225875461	638.198503455259	726.389360771319	64.120613117222	669.662989149187	929.362492103451	36.452889788502	674.722015746869	894.792760135768	38.713661694843	439.159297191280	967.665700776460	36.649917005709	357.707697319587	1052.195239248792	96.403287681791	384.536904818708	1179.232818968261	43.160358503176	352.276594317934	848.776671779542	1085.305839529958	220.215203807724	959.640646186959	847.840898466374	219.185862220492	1196.413901508641	1157.795003447458	754.588878275990	1446.626891854947	1194.659951049048	710.345104548953	
90	9.490071428571	810.514022216609	1002.873467948952	517.448876323870	948.935478280737	1429.008403677129	310.600041210300	1076.745873929573	1366.220373254796	455.738211989445	1017.378960199714	1444.132371641971	636.730150957816	955.850709561090	1493.554321732806	466.557692028821	1050.119429688506	936.046120903585	610.303432352269	1009.562563954752	961.878224679250	338.555897637280	1050.546692513387	723.941079687961	590.972047327666	953.100330904894	627.452937285252	659.589549190918	1016.750584482590	559.393211375602	582.438612806345	996.163875294735	462.383782574472	598.393534276022	1076.432513028810	758.458196018084	375.283391054577	1000.467749871520	632.486201643529	317.412639598375	1092.351951116246	562.766873023744	380.546480863812	1099.063987062153	490.502819988107	388.149762523787	1067.633596459597	416.772455898529	381.510560249148	974.768777191969	305.695854462028	330.792024150601	1021.352786918653	191.823993765485	399.152641149570	931.879390353068	390.731588709159	608.722284666344	824.365603029281	325.523376092914	672.056194567260	831.474595787087	216.625632555929	619.168199427831	648.511756419313	95.722525001024	590.691037517708	824.413938308824	105.916851442145	638.325757175940	722.052489375201	67.438769559287	669.605669307403	924.014658208804	36.354626911363	674.643759533306	888.989219858284	38.740293313421	439.136962185305	961.836827876049	36.602480875161	357.662445886235	1046.414247877205	96.309157237140	384.384791659138	1173.447865190516	42.943796071389	352.207435052410	856.692822339029	1085.548890385258	211.979119949528	973.460934754272	851.082471634952	210.914470921874	1189.606838667049	1153.990809098217	752.863324346797	1442.956376148675	1178.115621169728	714.728433277306	
91	9.509285714286	810.250570496951	1003.252107531277	512.409836441940	950.408660621776	1429.986204676269	307.269859223595	1076.791661961056	1366.913437459586	453.481724420765	1015.767182511204	1444.511454791740	634.106920335618	955.789207568792	1494.225781904191	463.381739729490	1049.144159761599	936.655959208671	606.843958073286	1010.326169226701	962.265867218805	334.835748090969	1051.426447549300	724.813452046466	588.288940708663	954.734124327616	627.937078708855	657.030198274954	1019.655200944880	559.813040190245	580.556922886219	999.505422429607	461.856435160043	597.656153520260	1075.541747875604	757.706927637781	371.474002450072	998.030957590285	632.242120393897	314.517254692415	1089.255769658794	561.907084370627	377.678758341595	1095.289712700159	489.739636193183	385.740555690273	1063.536201008574	416.162051897706	379.487155788245	970.058820990976	305.282934364301	329.367845884273	1016.100169293178	191.567188795609	398.427321887390	933.753856020175	391.120475575697	607.854661882067	824.676464605747	328.293679666333	670.817376805820	830.515121903624	218.719540611542	618.904486982147	645.295399345566	101.535331244434	590.532184085709	821.486985359028	106.816681881583	638.411687866100	717.955172682166	71.154472998915	669.483750452557	918.693475118065	36.233701404456	674.588368740077	883.185981150346	38.764796031752	439.105101001783	956.010993797696	36.555991439337	357.609915826757	1040.633804764813	96.223765363267	384.231391842648	1167.665616936346	42.751132457018	352.145192996591	865.088743807891	1085.793387518924	203.754813505175	987.188620541247	854.202563210974	202.872922486808	1181.638984413294	1149.642795581640	751.363474127650	1437.337640757982	1159.989373662714	719.485656117154	
92	9.528500000000	809.959781178971	1003.453328316456	507.409324954996	951.808677949587	1430.832770657233	304.078335800587	1076.703688142659	1367.501404444548	451.395308940783	1013.938424138016	1444.749168665108	631.627200149971	955.595994050434	1494.744242535693	460.372959304213	1048.090795904939	937.166560623032	603.447627340410	1011.113955734270	962.538806917036	331.233963679531	1052.694577462870	725.636132044070	585.638114901919	956.992482731970	628.222032564477	654.496114964289	1023.305977059082	560.165186460266	578.648301259345	1003.732257982427	461.193944305350	596.923234513264	1074.758978042069	756.896395150978	367.807090783357	995.808768001626	631.918005442062	311.688453535289	1086.360595956947	561.002252376065	374.941231858571	1091.732215850650	488.916197105084	383.434058788141	1059.624378815946	415.483263795792	377.548973435137	965.504138442727	304.854826377830	327.981611063577	1010.911839394438	191.280182187039	397.759695784874	936.468488560389	391.381825000333	606.962876595074	825.757362557528	331.141649500283	669.508940890379	830.124113859966	220.936875470588	618.571249613831	642.625089808421	107.981951440550	590.164217395268	818.868955302467	107.851469081254	638.426195749109	714.164384895265	75.412585255646	669.240781823574	913.370504362838	36.063300540646	674.573048109606	877.386786289502	38.785884959827	439.065752944474	950.192729408147	36.513491971181	357.554245627061	1034.859605719563	96.147718614356	384.089553179575	1161.889248641193	42.577966388700	352.090286797162	873.966037838378	1086.031192213113	195.657856631098	1000.851943557591	857.155669539789	195.170399275166	1172.503687695026	1144.776023378209	750.022757053163	1429.582602019467	1140.317658793024	724.489932135062	
